<?xml version="1.0" encoding="utf-8"?>
<!-- Generator: Adobe Illustrator 19.2.1, SVG Export Plug-In . SVG Version: 6.00 Build 0)  -->
<svg version="1.1" id="layer" xmlns="http://www.w3.org/2000/svg" xmlns:xlink="http://www.w3.org/1999/xlink" x="0px" y="0px"
	 viewBox="0 0 652 652" style="enable-background:new 0 0 652 652;" xml:space="preserve">
<style type="text/css">
	.st0{fill:#376C80;}
	.st1{fill:#FDC300;}
</style>
<g>
	<path class="st0" d="M271.5,71.4c51.1,0,92.5,41.4,92.5,92.5c0,34.3-15.9,64.1-41.7,80.3c-0.5,0.3-0.9,0.8-0.9,1.4
		c0,1.1,0.9,1.4,1,1.4c33.4,12.9,54.3,47,54.3,86.6c0,51.1-41.4,92.6-92.6,92.6l-122.2,0c-7.1,0-12.8-5.8-12.8-12.8V84.3
		c0-7.1,5.8-12.8,12.8-12.8H271.5z"/>
	<path class="st1" d="M226.8,363.4c-1.6,0-3-1.4-3-3v-74.2c0-1.6,1.4-3,3-3h4.7c1.6,0,3,1.4,3,3v32.9h28.9v-32.9c0-1.6,1.4-3,3-3
		h4.7c1.6,0,3,1.4,3,3v74.2c0,1.6-1.4,3-3,3h-4.7c-1.6,0-3-1.4-3-3v-31.9h-28.9v31.9c0,1.6-1.4,3-3,3H226.8z"/>
	<path class="st1" d="M226.5,214.2c-1.6,0-3-1.4-3-3V137c0-1.6,1.4-3,3-3h44.6c1.6,0,3,1.4,3,3v3.1c0,1.6-1.4,3-3,3h-36.9V169h31.5
		c1.6,0,3,1.4,3,3v3.2c0,1.6-1.4,3-3,3h-31.5v33c0,1.6-1.4,3-3,3H226.5z"/>
	<path class="st0" d="M150.6,511.5c-0.7,0-1.3-0.6-1.3-1.3v-31.5c0-0.7,0.6-1.3,1.3-1.3h8.7c7.2,0,9.8,3.8,9.8,9.1
		c0,3.6-0.9,5.5-4.2,6.9c3.3,0.9,5.7,3.5,5.7,8.6c0,6.8-4.5,9.5-10.8,9.5H150.6z M153.8,491.9h5.6c4,0,4.9-1.7,4.9-5.2
		c0-3.6-1.1-5.4-5.1-5.4h-5.4V491.9z M153.8,507.7h5.5c4.8,0,6.4-1.8,6.4-6c0-4.1-1.5-6-6.2-6h-5.7V507.7z"/>
	<path class="st0" d="M188.5,512.1c-6.5,0-10.1-3.7-10.1-13.1c0-9.4,3.9-13,9.7-13c5.9,0,9.2,3.4,9.2,12.3v0.9
		c0,0.4-0.3,0.8-0.8,0.8h-13.6c0.1,6.8,1.6,8.5,5.7,8.5c2.1,0,3.5-0.6,4.8-1.5c0.6-0.4,1.4-0.3,1.8,0.3l0.8,1
		c0.4,0.5,0.3,1.4-0.3,1.8C193.7,511.5,191.6,512.1,188.5,512.1 M187.9,489.4c-2.9,0-4.6,1.5-5,7.4h9.8
		C192.8,491.2,191.5,489.4,187.9,489.4"/>
	<path class="st0" d="M207.2,511.5c-0.7,0-1.3-0.6-1.3-1.3V488c0-0.7,0.6-1.3,1.3-1.3h0.7c0.7,0,1.4,0.5,1.5,1.3l0.4,2.2
		c1.8-2.3,4.1-4,7-4c0.1,0,0.3,0,0.5,0.1c0.2,0,0.4,0.2,0.3,0.4l-0.3,3.5c0,0.3-0.4,0.6-0.8,0.6c-0.2,0-0.5,0-0.8,0
		c-2.3,0-3.8,0.8-5.6,2.5v16.9c0,0.7-0.6,1.3-1.3,1.3H207.2z"/>
	<path class="st0" d="M226.6,511.5c-0.7,0-1.3-0.6-1.3-1.3V488c0-0.7,0.6-1.3,1.3-1.3h0.7c0.7,0,1.4,0.5,1.5,1.2l0.4,1.8
		c2.2-2.2,4.6-3.7,7.6-3.7c3.6,0,6,1.8,6,6v18.1c0,0.7-0.6,1.3-1.3,1.3h-1.7c-0.7,0-1.3-0.6-1.3-1.3v-16.8c0-2.8-0.8-3.6-3-3.6
		c-2,0-4.2,1.4-6,3v17.4c0,0.7-0.6,1.3-1.3,1.3H226.6z"/>
	<path class="st0" d="M261.6,512.1c-6.5,0-10.1-3.7-10.1-13.1c0-9.4,3.9-13,9.7-13c5.9,0,9.2,3.4,9.2,12.3v0.9
		c0,0.4-0.3,0.8-0.8,0.8H256c0.1,6.8,1.6,8.5,5.7,8.5c2.1,0,3.5-0.6,4.8-1.5c0.6-0.4,1.4-0.3,1.8,0.3l0.8,1c0.4,0.5,0.3,1.4-0.3,1.8
		C266.8,511.5,264.7,512.1,261.6,512.1 M261,489.4c-2.9,0-4.6,1.5-5,7.4h9.8C265.9,491.2,264.6,489.4,261,489.4"/>
	<path class="st0" d="M280.3,511.5c-0.7,0-1.3-0.6-1.3-1.3V488c0-0.7,0.6-1.3,1.3-1.3h0.7c0.7,0,1.4,0.5,1.5,1.3l0.4,2.2
		c1.8-2.3,4.1-4,7-4c0.2,0,0.3,0,0.5,0.1c0.2,0,0.4,0.2,0.3,0.4l-0.3,3.5c0,0.3-0.4,0.6-0.8,0.6c-0.2,0-0.5,0-0.8,0
		c-2.3,0-3.8,0.8-5.6,2.5v16.9c0,0.7-0.6,1.3-1.3,1.3H280.3z"/>
	<path class="st0" d="M151.1,570.8c-0.7,0-1.3-0.6-1.3-1.3V538c0-0.7,0.6-1.3,1.3-1.3h14.4c0.7,0,1.3,0.6,1.3,1.3v1.3
		c0,0.7-0.6,1.3-1.3,1.3h-11.1V551h8.8c0.7,0,1.3,0.6,1.3,1.3v1.3c0,0.7-0.6,1.3-1.3,1.3h-8.8v14.6c0,0.7-0.6,1.3-1.3,1.3H151.1z"/>
	<path class="st0" d="M179.5,571.4c-4.7,0-7.5-2.6-7.5-7.7c0-5.6,3.3-8.3,11.4-8.3h2v-1.9c0-2.8-0.3-4.5-3.6-4.5
		c-2.1,0-4.2,0.7-6.1,1.7c-0.6,0.3-1.4,0-1.7-0.6l-0.5-0.9c-0.3-0.6,0-1.4,0.6-1.8c2.2-1.2,4.8-2.1,8.2-2.1c4.8,0,7.4,2.2,7.4,7.5
		v16.7c0,0.7-0.6,1.3-1.3,1.3h-0.7c-0.7,0-1.4-0.5-1.6-1.2l-0.3-1.2C184.3,569.9,182.2,571.4,179.5,571.4 M180,568.1
		c2.4,0,4.2-1.6,5.4-3v-6.6H184c-6.2,0-7.4,1.6-7.4,5.2C176.6,567,177.6,568.1,180,568.1"/>
	<path class="st0" d="M208.2,571.4c-6.3,0-9.8-4.2-9.8-13.1c0-9.5,3.8-13,9.9-13c2.4,0,4.3,0.5,6,2c0.6,0.4,0.6,1.2,0.2,1.8l-0.8,1
		c-0.5,0.5-1.3,0.6-1.8,0.2c-1.1-0.8-2.1-1.3-3.8-1.3c-3.8,0-5.2,1.6-5.2,9.4c0,7.6,1.6,9.5,5.5,9.5c1.5,0,2.6-0.6,3.6-1.4
		c0.5-0.4,1.4-0.4,1.8,0.2l0.9,0.9c0.5,0.5,0.4,1.3-0.1,1.8C213,570.7,211,571.4,208.2,571.4"/>
	<path class="st0" d="M224.5,570.8c-0.7,0-1.3-0.6-1.3-1.3v-33.2c0-0.7,0.6-1.3,1.3-1.3h1.7c0.7,0,1.3,0.6,1.3,1.3v12.5
		c2.2-2,4.4-3.4,7.3-3.4c3.6,0,6,1.8,6,6v18.1c0,0.7-0.6,1.3-1.3,1.3h-1.7c-0.7,0-1.3-0.6-1.3-1.3v-16.8c0-2.8-0.8-3.6-3-3.6
		c-2,0-4.2,1.4-6,3v17.4c0,0.7-0.6,1.3-1.3,1.3H224.5z"/>
	<path class="st0" d="M251.9,570.8c-0.7,0-1.3-0.6-1.3-1.3v-33.2c0-0.7,0.6-1.3,1.3-1.3h1.7c0.7,0,1.3,0.6,1.3,1.3v12.5
		c2.2-2,4.4-3.4,7.3-3.4c3.6,0,6,1.8,6,6v18.1c0,0.7-0.6,1.3-1.3,1.3h-1.7c-0.7,0-1.3-0.6-1.3-1.3v-16.8c0-2.8-0.8-3.6-3-3.6
		c-2,0-4.2,1.4-6,3v17.4c0,0.7-0.6,1.3-1.3,1.3H251.9z"/>
	<path class="st0" d="M286.9,571.4c-6,0-10.1-3.8-10.1-13.1c0-9.3,4-13,10-13c6,0,10.2,3.7,10.2,13C297,567.7,293,571.4,286.9,571.4
		 M286.9,568.1c3.8,0,5.5-2,5.5-9.6c0-7.7-1.8-9.7-5.6-9.7c-3.8,0-5.5,2-5.5,9.6C281.4,566,283.2,568.1,286.9,568.1"/>
	<path class="st0" d="M314.3,571.4c-6.3,0-9.8-4.2-9.8-13.1c0-9.5,3.8-13,9.9-13c2.4,0,4.2,0.5,6,2c0.6,0.4,0.6,1.2,0.2,1.8l-0.8,1
		c-0.5,0.5-1.3,0.6-1.8,0.2c-1.1-0.8-2.1-1.3-3.8-1.3c-3.8,0-5.2,1.6-5.2,9.4c0,7.6,1.6,9.5,5.5,9.5c1.5,0,2.6-0.6,3.6-1.4
		c0.5-0.4,1.4-0.4,1.8,0.2l0.9,0.9c0.5,0.5,0.4,1.3-0.1,1.8C319.2,570.7,317.2,571.4,314.3,571.4"/>
	<path class="st0" d="M330.7,570.8c-0.7,0-1.3-0.6-1.3-1.3v-33.2c0-0.7,0.6-1.3,1.3-1.3h1.7c0.7,0,1.3,0.6,1.3,1.3v12.5
		c2.2-2,4.4-3.4,7.3-3.4c3.6,0,6,1.8,6,6v18.1c0,0.7-0.6,1.3-1.3,1.3h-1.7c-0.7,0-1.3-0.6-1.3-1.3v-16.8c0-2.8-0.8-3.6-3-3.6
		c-2,0-4.2,1.4-6,3v17.4c0,0.7-0.6,1.3-1.3,1.3H330.7z"/>
	<path class="st0" d="M362.7,571.4c-2.7,0-5.3-0.9-7.2-1.9c-0.6-0.4-0.8-1.2-0.4-1.8l0.5-0.9c0.3-0.6,1.1-0.8,1.7-0.5
		c1.7,1,3.5,1.6,5.5,1.6c3.4,0,4.4-1.3,4.4-3.7c0-2.8-1.3-3.3-5.2-4.4c-3.5-0.9-6.3-2.8-6.3-7.7c0-3.6,2.3-6.8,7.8-6.8
		c2.4,0,4.2,0.4,5.7,1c0.6,0.3,0.9,1.1,0.6,1.7l-0.4,1c-0.3,0.6-1,1-1.7,0.7c-1.4-0.6-2.6-0.8-4.1-0.8c-2.7,0-3.9,0.9-3.9,3.1
		c0,2.3,1,2.9,4.4,3.9c3.8,1,7.3,2.5,7.3,8.1C371.4,569.2,368.5,571.4,362.7,571.4"/>
	<path class="st0" d="M388.5,571.4c-6.3,0-9.8-4.2-9.8-13.1c0-9.5,3.8-13,9.9-13c2.4,0,4.2,0.5,6,2c0.6,0.4,0.6,1.2,0.2,1.8l-0.8,1
		c-0.5,0.5-1.3,0.6-1.8,0.2c-1.1-0.8-2.1-1.3-3.8-1.3c-3.8,0-5.2,1.6-5.2,9.4c0,7.6,1.6,9.5,5.5,9.5c1.5,0,2.6-0.6,3.6-1.4
		c0.5-0.4,1.4-0.4,1.8,0.2l0.9,0.9c0.5,0.5,0.4,1.3-0.1,1.8C393.4,570.7,391.3,571.4,388.5,571.4"/>
	<path class="st0" d="M404.8,570.8c-0.7,0-1.3-0.6-1.3-1.3v-33.2c0-0.7,0.6-1.3,1.3-1.3h1.7c0.7,0,1.3,0.6,1.3,1.3v12.5
		c2.2-2,4.4-3.4,7.3-3.4c3.6,0,6,1.8,6,6v18.1c0,0.7-0.6,1.3-1.3,1.3h-1.7c-0.7,0-1.3-0.6-1.3-1.3v-16.8c0-2.8-0.8-3.6-3-3.6
		c-2,0-4.2,1.4-6,3v17.4c0,0.7-0.6,1.3-1.3,1.3H404.8z"/>
	<path class="st0" d="M437.2,571.4c-3.6,0-6.3-2-6.3-6.3v-17.8c0-0.7,0.6-1.3,1.3-1.3h1.7c0.7,0,1.3,0.6,1.3,1.3v16.5
		c0,2.9,1,3.9,3.2,3.9c2,0,4.1-1.3,5.9-3v-17.4c0-0.7,0.6-1.3,1.3-1.3h1.7c0.7,0,1.3,0.6,1.3,1.3v22.2c0,0.7-0.6,1.3-1.3,1.3h-0.7
		c-0.7,0-1.4-0.5-1.5-1.2l-0.4-1.8C442.5,569.9,440.1,571.4,437.2,571.4"/>
	<path class="st0" d="M463.1,571.3c-3.2,0-4.5-1.7-4.5-6v-29c0-0.7,0.6-1.3,1.3-1.3h1.7c0.7,0,1.3,0.6,1.3,1.3V566
		c0,1.2,0.5,1.7,1.7,1.7c0.2,0,0.4,0,0.5-0.1c0.3,0,0.5,0.2,0.5,0.4l0.3,1.4c0.2,0.7-0.3,1.4-1,1.5
		C464.3,571.2,463.7,571.3,463.1,571.3"/>
	<path class="st0" d="M482.1,571.4c-6.5,0-10.1-3.7-10.1-13.1c0-9.4,3.9-13,9.7-13c5.9,0,9.2,3.4,9.2,12.3v0.9
		c0,0.4-0.3,0.8-0.8,0.8h-13.6c0.1,6.8,1.6,8.5,5.7,8.5c2.1,0,3.5-0.6,4.8-1.5c0.6-0.4,1.4-0.3,1.8,0.3l0.8,1
		c0.4,0.5,0.3,1.4-0.3,1.8C487.3,570.8,485.2,571.4,482.1,571.4 M481.6,548.7c-2.9,0-4.6,1.5-5,7.4h9.8
		C486.4,550.5,485.1,548.7,481.6,548.7"/>
</g>
</svg>
